<?xml version="1.0" standalone="no"?>
<!DOCTYPE svg PUBLIC "-//W3C//DTD SVG 20010904//EN"
 "http://www.w3.org/TR/2001/REC-SVG-20010904/DTD/svg10.dtd">
<svg version="1.0" xmlns="http://www.w3.org/2000/svg"
 width="16.000000pt" height="16.000000pt" viewBox="0 0 16.000000 16.000000"
 preserveAspectRatio="xMidYMid meet">
<metadata>
Created by potrace 1.11, written by Peter Selinger 2001-2013
</metadata>
<g transform="translate(0.000000,16.000000) scale(0.002286,-0.002286)"
fill="#000000" stroke="none">
<path d="M4998 6775 c-2 -2 -32 -5 -68 -9 -36 -3 -81 -8 -100 -11 -19 -4 -45
-8 -57 -10 -13 -2 -26 -6 -30 -8 -5 -3 -24 -8 -43 -11 -112 -17 -300 -95 -415
-171 -142 -94 -247 -225 -323 -405 -38 -90 -85 -239 -95 -305 -3 -16 -8 -46
-11 -65 -3 -19 -8 -48 -11 -65 -3 -16 -8 -79 -11 -139 l-7 -109 104 6 c57 4
113 9 125 11 12 2 45 7 74 11 29 4 64 11 77 16 13 5 23 7 23 4 0 -9 193 49
270 82 129 56 215 111 299 193 89 87 123 134 179 246 38 75 94 230 108 293 26
127 45 254 50 344 l7 108 -71 -2 c-39 -1 -73 -3 -74 -4z"/>
<path d="M3464 6004 c-37 -13 -53 -29 -66 -69 -3 -11 -6 -172 -7 -358 -1 -381
1 -396 64 -423 65 -27 128 1 145 65 6 25 10 169 10 381 l-1 340 -30 34 c-34
40 -64 48 -115 30z"/>
<path d="M2198 5244 c-2 -1 -34 -5 -73 -9 -181 -16 -397 -68 -546 -131 -46
-20 -91 -38 -99 -41 -8 -4 -17 -9 -20 -12 -3 -3 -25 -17 -50 -30 -87 -46 -202
-136 -285 -223 -120 -123 -213 -270 -295 -463 -52 -124 -115 -359 -135 -507
-3 -21 -7 -53 -10 -70 -4 -33 -14 -128 -20 -203 -6 -67 -7 -474 -1 -483 3 -4
6 -30 7 -58 1 -43 30 -247 44 -314 3 -14 7 -36 10 -50 22 -119 114 -409 170
-537 164 -375 377 -708 635 -997 58 -65 281 -288 343 -344 259 -230 578 -434
812 -520 124 -45 332 -36 491 21 52 19 164 79 195 104 37 30 98 56 131 56 29
0 60 -14 129 -58 161 -102 313 -150 487 -154 181 -4 439 115 759 350 50 38
104 78 119 91 384 321 658 637 901 1038 73 120 220 427 233 485 1 6 5 15 10
20 22 29 130 397 145 495 4 25 8 47 10 50 1 3 6 28 10 55 4 28 8 61 11 75 2
14 6 54 9 90 4 36 9 76 11 90 6 33 5 435 -1 478 -2 18 -7 68 -10 110 -3 42 -7
88 -9 102 -3 14 -10 61 -16 105 -7 44 -23 125 -37 180 -14 55 -27 109 -29 119
-8 41 -88 244 -122 311 -119 231 -290 419 -489 539 -209 125 -469 205 -758
233 -99 10 -415 9 -470 0 -22 -4 -51 -9 -65 -12 -14 -2 -36 -6 -50 -9 -216
-35 -582 -220 -752 -379 l-27 -25 -49 42 c-48 40 -116 90 -197 143 -129 84
-395 194 -525 217 -57 9 -106 19 -125 24 -20 5 -403 11 -407 6z"/>
</g>
</svg>
